<svg width="270" height="32" viewBox="0 0 270 32" fill="none" xmlns="http://www.w3.org/2000/svg">
<g clip-path="url(#clip0_208_234)">
<path d="M20.5421 30.5L13.4777 20.4615C12.436 20.6101 11.4756 20.6761 10.5966 20.6761H2.14862V30.5H0V0.5H10.6129C14.3241 0.5 17.2541 1.39158 19.3539 3.17474C21.4699 4.9579 22.528 7.43451 22.528 10.6046C22.528 12.9821 21.9257 14.9634 20.7374 16.5815C19.5329 18.1995 17.8238 19.3387 15.61 19.9827L23 30.4835H20.5421V30.5ZM10.6129 18.7609C13.7707 18.7609 16.1798 18.0509 17.8401 16.631C19.5004 15.2111 20.3305 13.2133 20.3305 10.6046C20.3305 8.01238 19.5004 5.99807 17.8401 4.57815C16.1798 3.15823 13.7707 2.44827 10.6129 2.44827H2.14862V18.7444H10.6129V18.7609Z" fill="#F904FC"/>
<path d="M32.3333 29.4658C30.0476 28.1209 28.254 26.2549 26.9524 23.9013C25.6508 21.5477 25 18.9083 25 16C25 13.0916 25.6508 10.4523 26.9524 8.0987C28.254 5.74512 30.0476 3.87907 32.3333 2.53416C34.619 1.18926 37.1746 0.5 40 0.5C42.8254 0.5 45.381 1.17245 47.6667 2.50054C49.9524 3.84544 51.746 5.69469 53.0476 8.04826C54.3492 10.4018 55 13.058 55 16C55 18.942 54.3492 21.5813 53.0476 23.9517C51.746 26.3053 49.9524 28.1546 47.6667 29.4995C45.381 30.8444 42.8254 31.5 40 31.5C37.1587 31.4832 34.6032 30.8107 32.3333 29.4658ZM46.5397 27.7007C48.4921 26.5407 50.0317 24.9268 51.1587 22.8758C52.2857 20.8248 52.8413 18.5385 52.8413 16C52.8413 13.4615 52.2857 11.1752 51.1587 9.12419C50.0317 7.07321 48.4921 5.45933 46.5397 4.29935C44.5873 3.13937 42.3968 2.55098 39.9841 2.55098C37.5714 2.55098 35.381 3.13937 33.4127 4.29935C31.4444 5.45933 29.9048 7.07321 28.7778 9.12419C27.6508 11.1752 27.0952 13.4615 27.0952 16C27.0952 18.5385 27.6508 20.8248 28.7778 22.8758C29.9048 24.9268 31.4444 26.5407 33.4127 27.7007C35.381 28.8606 37.5714 29.449 39.9841 29.449C42.4127 29.4322 44.6032 28.8606 46.5397 27.7007Z" fill="#F904FC"/>
<path d="M65.253 29.468C63.0031 28.1246 61.241 26.2774 59.9352 23.9263C58.6451 21.5753 58 18.922 58 15.9832C58 13.0444 58.6451 10.4079 59.9352 8.04009C61.2253 5.68906 63.0031 3.84182 65.253 2.49837C67.5028 1.15493 70.0201 0.5 72.8364 0.5C74.9132 0.5 76.8169 0.852654 78.5475 1.57476C80.2939 2.28006 81.7728 3.33803 83 4.73185L81.6941 6.17606C79.4128 3.75785 76.4865 2.56555 72.915 2.56555C70.5236 2.56555 68.3367 3.1533 66.3858 4.31203C64.4191 5.47075 62.893 7.08288 61.776 9.13164C60.6589 11.1804 60.1082 13.4642 60.1082 16C60.1082 18.5358 60.6589 20.8196 61.776 22.8684C62.893 24.9171 64.4349 26.5293 66.3858 27.688C68.3524 28.8467 70.5236 29.4345 72.915 29.4345C76.455 29.4345 79.3814 28.2086 81.6941 25.7736L83 27.2178C81.7728 28.6116 80.2782 29.6696 78.5318 30.4085C76.7697 31.1306 74.8817 31.5 72.8364 31.5C70.0359 31.4664 67.5028 30.8115 65.253 29.468Z" fill="#F904FC"/>
<path d="M96.7449 15.7145L90.1377 22.6122V30.5H88V0.5H90.1377V19.7739L108.518 0.5H111.126L98.17 14.1304L112 30.5H109.393L96.7449 15.7145Z" fill="#F904FC"/>
<path d="M138 28.5352V30.5H118V0.5H137.378V2.46478H120.105V14.303H135.544V16.2347H120.105V28.5352H138Z" fill="#F904FC"/>
<path d="M149.439 2.46478H139V0.5H162V2.46478H151.561V30.5H149.455V2.46478H149.439Z" fill="#F904FC"/>
<path d="M167.907 30.4888C165.833 29.8257 164.203 28.9471 163 27.8695L164.852 23.5262C166.023 24.5043 167.48 25.3 169.189 25.9134C170.899 26.5267 172.624 26.8417 174.35 26.8417C176.487 26.8417 178.085 26.477 179.13 25.7642C180.191 25.0513 180.713 24.1064 180.713 22.9294C180.713 22.0674 180.412 21.3545 179.827 20.7909C179.241 20.2273 178.497 19.7963 177.579 19.4813C176.677 19.1663 175.442 18.8016 173.875 18.4037C171.69 17.8567 169.902 17.3096 168.556 16.7626C167.195 16.2155 166.039 15.3701 165.058 14.2096C164.092 13.0492 163.602 11.4743 163.602 9.50161C163.602 7.84385 164.029 6.31872 164.9 4.95936C165.77 3.6 167.068 2.50588 168.809 1.71016C170.551 0.914439 172.672 0.5 175.204 0.5C176.961 0.5 178.687 0.732086 180.381 1.19626C182.074 1.66043 183.546 2.32353 184.781 3.16898L183.103 7.5123C181.837 6.73316 180.523 6.15294 179.162 5.75508C177.785 5.35722 176.455 5.15829 175.173 5.15829C173.067 5.15829 171.5 5.53957 170.471 6.28556C169.443 7.03155 168.936 8.0262 168.936 9.25294C168.936 10.115 169.237 10.8112 169.822 11.3583C170.408 11.9053 171.152 12.3364 172.07 12.6513C172.972 12.9663 174.207 13.331 175.774 13.7289C177.911 14.2428 179.668 14.7898 181.03 15.3369C182.407 15.9005 183.578 16.746 184.544 17.8898C185.509 19.0337 186 20.592 186 22.5315C186 24.1893 185.573 25.6979 184.702 27.0572C183.831 28.4 182.533 29.4775 180.776 30.2898C179.019 31.0856 176.882 31.5 174.365 31.5C172.118 31.4668 169.981 31.1353 167.907 30.4888Z" fill="#65A0D9"/>
<path d="M192.43 27.936C190.143 25.5656 189 22.1697 189 17.7484V0.5H194.52V17.5298C194.52 23.5315 197.035 26.5239 202.065 26.5239C207.063 26.5239 209.578 23.5315 209.578 17.5298V0.5H215V17.7484C215 22.1697 213.857 25.5656 211.587 27.936C209.317 30.3064 206.116 31.5 202.033 31.5C197.917 31.4832 194.716 30.3064 192.43 27.936Z" fill="#65A0D9"/>
<path d="M239.14 30.4835L233.168 21.7046C232.91 21.7376 232.54 21.7541 232.041 21.7541H225.441V30.5H220V0.5H232.041C234.569 0.5 236.79 0.929043 238.674 1.78713C240.557 2.64521 241.99 3.86634 243.004 5.467C244.002 7.06766 244.501 8.96535 244.501 11.1601C244.501 13.4208 243.97 15.3515 242.891 16.9851C241.813 18.6188 240.283 19.8234 238.271 20.632L245 30.4835H239.14ZM237.176 6.75413C235.953 5.73102 234.15 5.21947 231.784 5.21947H225.425V17.1667H231.784C234.15 17.1667 235.953 16.6386 237.176 15.599C238.4 14.5594 239.012 13.0743 239.012 11.1601C239.012 9.26238 238.4 7.77723 237.176 6.75413Z" fill="#65A0D9"/>
<path d="M254.349 5.16997V14.2954H268.243V19.0149H254.349V30.5H249V0.5H270V5.16997H254.349Z" fill="#65A0D9"/>
</g>
<defs>
<clipPath id="clip0_208_234">
<rect width="270" height="31" fill="white" transform="translate(0 0.5)"/>
</clipPath>
</defs>
</svg>
