<svg id="eIKyRpHV9Qq1" xmlns="http://www.w3.org/2000/svg" xmlns:xlink="http://www.w3.org/1999/xlink" viewBox="0 0 70 70" shape-rendering="geometricPrecision" text-rendering="geometricPrecision">
<style><![CDATA[
#eIKyRpHV9Qq2_tr {animation: eIKyRpHV9Qq2_tr__tr 3000ms linear infinite normal forwards}@keyframes eIKyRpHV9Qq2_tr__tr { 0% {transform: translate(35.75875px,39.25875px) rotate(-181.561394deg)} 16.666667% {transform: translate(35.75875px,39.25875px) rotate(-90.387555deg)} 33.333333% {transform: translate(35.75875px,39.25875px) rotate(-181.645938deg)} 50% {transform: translate(35.75875px,39.25875px) rotate(-90.361758deg)} 66.666667% {transform: translate(35.75875px,39.25875px) rotate(-181.424893deg)} 83.333333% {transform: translate(35.75875px,39.25875px) rotate(93.896916deg)} 100% {transform: translate(35.75875px,39.25875px) rotate(-182.535659deg)}}
]]></style>
<g id="eIKyRpHV9Qq2_tr" transform="translate(35.75875,39.25875) rotate(-181.561394)"><g transform="translate(-35.758743,-39.25875)"><path d="M36.6124,36.5368c-1.4636-.7734,2.5112,3.4803,1.7629,1.8498L51.9723,24.207c.2299-.2472.3577-.5861.3577-.9409c0-.3667-.1314-.7136-.3577-.9368-.4635-.5183-1.2702-.5063-1.7264-.008L36.6124,36.5368Z" clip-rule="evenodd" fill="#fff" fill-rule="evenodd"/><path d="M35.7588,43.6196c2.4084,0,4.3608-1.9524,4.3608-4.3608s-1.9524-4.3609-4.3608-4.3609-4.3609,1.9525-4.3609,4.3609s1.9525,4.3608,4.3609,4.3608Z" fill="#fff"/></g></g><path d="M34.9961,3.5c-9.3466,0-18.1338,3.67551-24.7339,10.35C3.64637,20.5324,0.000052,29.4185,0.000052,38.8664c-.007824,4.5142.86072,8.9692,2.586068,13.25l-.01173.1068.18388.3126c2.04616,4.9059,5.03129,9.163,8.87323,12.6526.2504.2294.5986.36.9664.3205.3442-.0238.6611-.1741.8607-.4076.2464-.2611.3756-.6053.3521-.9653-.0157-.3561-.1722-.6845-.4343-.914-3.2746-2.9752-5.88027-6.5518-7.74255-10.6348l3.77934-1.5865c.3169-.1266.56338-.3719.71991-.7161.133-.3324.1291-.6964-.0118-1.0208-.13299-.3204-.40686-.5776-.73941-.7121-.33255-.1227-.68075-.1187-.9507,0L4.65576,50.1342C3.4664,46.9018,2.79739,43.5547,2.66437,40.172h4.10798c.72378,0,1.30673-.5895,1.30673-1.3215c0-.7319-.58295-1.3214-1.30673-1.3214h-4.10798c.12911-3.4342.78638-6.7852,1.95618-9.9741l3.75587,1.5746c.29342.1385.66901.1464,1.00156.0198.34429-.1305.61815-.3917.75122-.7161.2777-.6686-.0353-1.4441-.70427-1.7329L5.60255,25.1218c1.4241-3.0939,3.30595-5.9267,5.60645-8.4351l2.8873,2.9238c.2347.2414.5673.3838.9116.3877h.0156c.356,0,.6964-.1384.9429-.3877.493-.5104.489-1.3491-.0117-1.8674l-2.8913-2.9278c2.4883-2.3303,5.2974-4.2254,8.3451-5.65763l1.5767,3.85353c.2073.4906.6807.8071,1.205.8071.176,0,.3599-.0395.4968-.0989.3209-.1345.5752-.3877.7082-.7201.1291-.3323.1291-.6844,0-1.0128L23.8224,8.14483c3.169-1.1711,6.4828-1.83182,9.867-1.95843v4.1384c0,.7319.5868,1.3254,1.3145,1.3254.7199,0,1.2989-.5935,1.2989-1.3254v-4.1384c3.3881.12661,6.7019.78733,9.8631,1.95843L44.5814,12.0023c-.1291.3245-.1291.6805.0039,1.0208.1369.3205.3912.5776.6416.6765.1683.0831.36.1227.5712.1227.536,0,1.0055-.3165,1.209-.8111l1.5766-3.85353c3.0478,1.42433,5.8529,3.33133,8.349,5.66163l-2.9108,2.9436c-.5047.5143-.5008,1.3531.0078,1.8753.5047.4985,1.3498.4906,1.8467-.0079l2.9108-2.9436c2.32,2.54,4.1979,5.3768,5.6064,8.4509L60.5595,26.736c-.6612.2928-.9781,1.0682-.7082,1.7171.1996.4945.6847.8229,1.209.8229.1212,0,.356-.0158.5007-.0949l3.8263-1.6024c1.1659,3.1889,1.8232,6.54,1.9523,9.9781h-4.1354c-.7198,0-1.3028.5935-1.3028,1.3294c0,.7319.583,1.3214,1.3028,1.3214l4.1354-.004c-.133,3.3749-.8099,6.718-2.0031,9.9623L61.561,48.5833c-.309-.1345-.6807-.1345-1.0054.0079-.3287.1345-.583.3996-.7043.6964-.1369.3283-.1408.6884-.0078,1.0128.1252.3323.3834.5895.7121.728l3.8067,1.5865c-1.874,4.0751-4.4797,7.6557-7.7465,10.6309-.2543.2255-.4108.546-.446.9179-.0156.3521.0939.6884.3208.9416.2465.2849.6025.4471.9859.4471.3365,0,.6495-.1187.8725-.3363c3.8106-3.4579,6.8779-7.8377,8.885-12.6605l.1252-.273.0352-.1227C69.1158,47.883,69.9922,43.4281,70,38.9138c.0039-9.4558-3.6307-18.3458-10.2386-25.0401C53.1456,7.17946,44.3506,3.5,34.9961,3.5Z" clip-rule="evenodd" fill="#f904fc" fill-rule="evenodd"/></svg>
