<svg width="984" height="113" viewBox="0 0 984 113" fill="none" xmlns="http://www.w3.org/2000/svg">
<g clip-path="url(#clip0_208_295)">
<path d="M74.8646 109.355L49.1188 72.7628C45.3221 73.3045 41.8221 73.5452 38.6187 73.5452H7.83053V109.355H0V0H38.6781C52.2035 0 62.8815 3.24995 70.5341 9.74985C78.2459 16.2498 82.1019 25.2774 82.1019 36.8328C82.1019 45.4993 79.907 52.7214 75.5764 58.6195C71.1866 64.5175 64.9578 68.6703 56.89 71.0175L83.8222 109.295H74.8646V109.355ZM38.6781 66.5638C50.1866 66.5638 58.9662 63.9759 65.0171 58.8C71.068 53.6242 74.0934 46.3419 74.0934 36.8328C74.0934 27.3838 71.068 20.0414 65.0171 14.8655C58.9662 9.68967 50.1866 7.10174 38.6781 7.10174H7.83053V66.5036H38.6781V66.5638Z" fill="white"/>
<path d="M117.837 105.585C109.507 100.683 102.97 93.8807 98.2264 85.3015C93.4829 76.7223 91.1111 67.1014 91.1111 56.5C91.1111 45.8986 93.4829 36.2777 98.2264 27.6985C102.97 19.1193 109.507 12.3172 117.837 7.41486C126.167 2.51247 135.481 0 145.778 0C156.075 0 165.388 2.45119 173.718 7.2923C182.049 12.1947 188.586 18.9355 193.329 27.5146C198.073 36.0938 200.444 45.776 200.444 56.5C200.444 67.224 198.073 76.8449 193.329 85.4854C188.586 94.0645 182.049 100.805 173.718 105.708C165.388 110.61 156.075 113 145.778 113C135.423 112.939 126.109 110.488 117.837 105.585ZM169.611 99.1508C176.727 94.9225 182.338 89.0396 186.445 81.5634C190.552 74.0873 192.577 65.7533 192.577 56.5C192.577 47.2467 190.552 38.9127 186.445 31.4366C182.338 23.9604 176.727 18.0775 169.611 13.8492C162.496 9.62093 154.513 7.47614 145.72 7.47614C136.927 7.47614 128.944 9.62093 121.771 13.8492C114.598 18.0775 108.986 23.9604 104.879 31.4366C100.772 38.9127 98.7471 47.2467 98.7471 56.5C98.7471 65.7533 100.772 74.0873 104.879 81.5634C108.986 89.0396 114.598 94.9225 121.771 99.1508C128.944 103.379 136.927 105.524 145.72 105.524C154.571 105.463 162.554 103.379 169.611 99.1508Z" fill="white"/>
<path d="M237.811 105.593C229.612 100.696 223.19 93.9626 218.43 85.3927C213.729 76.8229 211.378 67.1511 211.378 56.4388C211.378 45.7264 213.729 36.1159 218.43 27.4848C223.132 18.9149 229.612 12.1815 237.811 7.2844C246.01 2.38732 255.185 0 265.448 0C273.017 0 279.955 1.28548 286.262 3.91766C292.627 6.48862 298.017 10.3451 302.489 15.4258L297.73 20.6901C289.416 11.8754 278.751 7.52925 265.735 7.52925C257.019 7.52925 249.049 9.67172 241.939 13.8954C234.772 18.1192 229.21 23.9957 225.139 31.4637C221.068 38.9317 219.061 47.2568 219.061 56.5C219.061 65.7432 221.068 74.0683 225.139 81.5363C229.21 89.0043 234.829 94.8808 241.939 99.1046C249.107 103.328 257.019 105.471 265.735 105.471C278.636 105.471 289.301 101.002 297.73 92.1262L302.489 97.3906C298.017 102.471 292.569 106.328 286.205 109.021C279.783 111.653 272.902 113 265.448 113C255.242 112.878 246.01 110.49 237.811 105.593Z" fill="white"/>
<path d="M352.582 55.4594L328.502 80.6026V109.355H320.711V0H328.502V70.2566L395.489 0H404.991L357.775 49.6849L408.178 109.355H398.676L352.582 55.4594Z" fill="white"/>
<path d="M502.933 102.193V109.355H430.044V0H500.666V7.16193H437.717V50.3141H493.982V57.3556H437.717V102.193H502.933Z" fill="white"/>
<path d="M544.621 7.16193H506.578V0H590.4V7.16193H552.357V109.355H544.679V7.16193H544.621Z" fill="white"/>
<path d="M611.928 109.314C604.371 106.897 598.429 103.694 594.044 99.7663L600.794 83.9342C605.063 87.4995 610.37 90.4 616.601 92.6358C622.831 94.8717 629.119 96.0198 635.408 96.0198C643.196 96.0198 649.022 94.6904 652.83 92.092C656.695 89.4936 658.598 86.0492 658.598 81.7588C658.598 78.6166 657.502 76.0182 655.368 73.9636C653.233 71.9091 650.522 70.338 647.176 69.1898C643.888 68.0417 639.388 66.7123 633.677 65.262C625.716 63.2679 619.197 61.2738 614.293 59.2797C609.332 57.2856 605.121 54.2037 601.544 49.9738C598.025 45.7439 596.237 40.0032 596.237 32.8123C596.237 26.7695 597.794 21.2102 600.967 16.2551C604.14 11.3 608.871 7.31177 615.216 4.41123C621.562 1.5107 629.292 0 638.523 0C644.926 0 651.214 0.84599 657.387 2.53797C663.56 4.22995 668.925 6.64706 673.425 9.72888L667.31 25.561C662.694 22.7209 657.906 20.6059 652.945 19.1556C647.926 17.7053 643.08 16.9802 638.407 16.9802C630.735 16.9802 625.023 18.3701 621.274 21.0893C617.524 23.8086 615.678 27.4342 615.678 31.9059C615.678 35.0481 616.774 37.5861 618.908 39.5802C621.043 41.5743 623.754 43.1455 627.1 44.2936C630.389 45.4417 634.888 46.7711 640.6 48.2214C648.388 50.0947 654.791 52.0888 659.752 54.0829C664.771 56.1374 669.04 59.2193 672.559 63.3888C676.078 67.5583 677.867 73.2385 677.867 80.3086C677.867 86.3513 676.309 91.8503 673.136 96.8054C669.963 101.7 665.233 105.628 658.829 108.589C652.426 111.489 644.638 113 635.465 113C627.273 112.879 619.485 111.671 611.928 109.314Z" fill="white"/>
<path d="M701.299 100.009C692.966 91.3682 688.8 78.9897 688.8 62.8731V0H708.918V62.0765C708.918 83.9534 718.084 94.8612 736.416 94.8612C754.629 94.8612 763.795 83.9534 763.795 62.0765V0H783.556V62.8731C783.556 78.9897 779.389 91.3682 771.116 100.009C762.843 108.649 751.177 113 736.297 113C721.298 112.939 709.632 108.649 701.299 100.009Z" fill="white"/>
<path d="M871.534 109.295L849.768 77.2943C848.829 77.4146 847.48 77.4747 845.661 77.4747H821.608V109.355H801.778V0H845.661C854.872 0 862.968 1.56393 869.832 4.69179C876.697 7.81965 881.918 12.2708 885.614 18.1055C889.252 23.9402 891.07 30.8576 891.07 38.8577C891.07 47.0984 889.134 54.1361 885.203 60.091C881.273 66.046 875.699 70.437 868.366 73.3844L892.889 109.295H871.534ZM864.376 22.7973C859.918 19.0679 853.347 17.2032 844.723 17.2032H821.549V60.7527H844.723C853.347 60.7527 859.918 58.8279 864.376 55.0383C868.835 51.2488 871.065 45.8352 871.065 38.8577C871.065 31.9403 868.835 26.5267 864.376 22.7973Z" fill="white"/>
<path d="M926.961 17.0228V50.2864H977.598V67.4896H926.961V109.355H907.467V0H984V17.0228H926.961Z" fill="white"/>
</g>
<defs>
<clipPath id="clip0_208_295">
<rect width="984" height="113" fill="white"/>
</clipPath>
</defs>
</svg>
